<svg xmlns="http://www.w3.org/2000/svg" width="186" height="79" viewBox="0 0 186 79">
  <g id="logo" transform="translate(-3012.093 -4592.051)">
    <g id="グループ_238" data-name="グループ 238" transform="translate(3012.093 4592.051)">
      <path id="パス_51" data-name="パス 51" d="M41.244,64.349a.6.6,0,0,0,.192-.054.634.634,0,0,1,.192-.054,1.869,1.869,0,0,1,.412-.114,1.686,1.686,0,0,0,.412-.11,17,17,0,0,0,3.133-1.426,9.484,9.484,0,0,0,1.4-.965q.631-.529,1.237-1.054a15.772,15.772,0,0,0,2.034-2.486,16.679,16.679,0,0,0,1.319-2.554,8.576,8.576,0,0,0,.439-1.3c.111-.437.2-.864.276-1.278a4.144,4.144,0,0,0,.055-.642v-.635c0-.183-.009-.373-.027-.574s-.047-.387-.082-.568a9.954,9.954,0,0,0-.66-2.278,4.832,4.832,0,0,1-.3-.539,2.339,2.339,0,0,0-.357-.529c-.11-.168-.239-.342-.385-.525s-.293-.354-.44-.519a3.109,3.109,0,0,1-.247-.24,1.138,1.138,0,0,0-.3-.235,3.206,3.206,0,0,1-.247-.243,1.129,1.129,0,0,0-.3-.233,4.449,4.449,0,0,0-.6-.441c-.22-.135-.44-.261-.66-.378a13.808,13.808,0,0,0-3.023-1.236,16.51,16.51,0,0,0-3.463-.514q-.936.02-1.815.059t-1.813.167a.893.893,0,0,1-.743-.2.881.881,0,0,1-.3-.7,1.161,1.161,0,0,1,.3-.786,1.176,1.176,0,0,1,.743-.406q.823-.114,1.649-.31t1.649-.422a29.517,29.517,0,0,0,3.133-1.259,16.457,16.457,0,0,0,1.484-.839c.475-.3.953-.638,1.429-1a18.547,18.547,0,0,0,2.473-2.216,15.348,15.348,0,0,0,1.924-2.471,17.039,17.039,0,0,0,1.429-2.513,15.616,15.616,0,0,0,.879-2.548q.11-.622.22-1.187a11.672,11.672,0,0,0,.165-1.181V23.656l-.165-1.136a6.078,6.078,0,0,0-.3-1.088,9.616,9.616,0,0,0-.467-1.01,7.36,7.36,0,0,0-1.374-1.905c-.294-.254-.586-.518-.879-.789a6.239,6.239,0,0,0-1.044-.765,15.9,15.9,0,0,0-5.057-2.057,6.252,6.252,0,0,0-.688-.207q-.357-.089-.741-.147c-.256-.037-.5-.078-.743-.118s-.486-.079-.741-.117q-1.484-.179-3.134-.229l-1.565-.005-1.621,0-1.65.117q-.824.061-1.649.174a38.036,38.036,0,0,0-6.541,1.4,22.389,22.389,0,0,0-6.156,2.836,11.833,11.833,0,0,0-1.457.974q-.689.535-1.347,1.067a7.1,7.1,0,0,1-.6.608,6.969,6.969,0,0,0-.606.608,7.3,7.3,0,0,0-.6.662c-.184.227-.367.446-.551.654a16.9,16.9,0,0,0-.933,1.425,11.679,11.679,0,0,0-.769,1.568,10,10,0,0,0-.824,3.145,2.647,2.647,0,0,1-.029.363,3.037,3.037,0,0,0-.027.417v.332a1.162,1.162,0,0,1,.056.378,5.143,5.143,0,0,0,.054.792,3.779,3.779,0,0,0,.165.666,11.227,11.227,0,0,0,.934,2.684,11.829,11.829,0,0,0,.716,1.168,10.188,10.188,0,0,0,.824,1.044,4.228,4.228,0,0,0,.934.974c.182.159.357.3.522.424s.338.248.521.368a3.2,3.2,0,0,0,.55.393c.184.1.366.216.551.337a6.56,6.56,0,0,1,.632.272q.3.153.577.279.33.118.659.212t.661.211a1.75,1.75,0,0,0,.274.072c.111.021.221.044.331.067a.8.8,0,0,0,.329.064l.386.058a2.64,2.64,0,0,1,1.869,1.4,3,3,0,0,1,.165,2.457,3.981,3.981,0,0,1-.632,1.162,4.339,4.339,0,0,1-.963.9,3.369,3.369,0,0,1-1.181.523,3.07,3.07,0,0,1-1.292.012.726.726,0,0,1-.33-.065l-.055-.048-.22-.023-.11-.041-.11-.038a.415.415,0,0,0-.22-.108.4.4,0,0,1-.22-.107,3.172,3.172,0,0,1-.467-.156c-.129-.056-.267-.11-.412-.166-.294-.141-.578-.285-.852-.431s-.56-.309-.853-.489a4.416,4.416,0,0,1-.8-.5q-.359-.282-.742-.56a10.7,10.7,0,0,1-1.43-1.235,17.316,17.316,0,0,1-1.236-1.428,11.221,11.221,0,0,1-1.018-1.569,9.807,9.807,0,0,1-.824-1.706,4.481,4.481,0,0,1-.357-.887q-.137-.478-.247-.96a12.542,12.542,0,0,1-.275-3.875,8.484,8.484,0,0,1,.055-.973c.037-.316.092-.647.165-.987a.358.358,0,0,0,.055-.23l.056-.116v-.111a.242.242,0,0,1,.026-.142.238.238,0,0,0,.027-.142l.055-.229a2.325,2.325,0,0,0,.137-.487,2.359,2.359,0,0,1,.137-.487,25.537,25.537,0,0,1,1.594-3.583q.44-.833.963-1.623t1.127-1.589q.273-.37.576-.741t.633-.749c.219-.252.44-.492.66-.725s.439-.456.659-.671a26.633,26.633,0,0,1,2.914-2.5,35.472,35.472,0,0,1,6.541-3.826,36.5,36.5,0,0,1,3.463-1.389q1.759-.6,3.518-1.12c.586-.19,1.163-.354,1.732-.487s1.162-.279,1.786-.44q.933-.184,1.814-.334t1.813-.277q1.814-.253,3.656-.368a23.119,23.119,0,0,1,3.71.066,22.01,22.01,0,0,1,3.682.647c.293.072.6.149.907.234s.614.184.906.289q.881.319,1.815.741a17.606,17.606,0,0,1,3.243,2.144,15.115,15.115,0,0,1,2.638,3.107,12.668,12.668,0,0,1,1.649,3.963,15.014,15.014,0,0,1,.331,4.475,19.833,19.833,0,0,1-.357,2.254,12.634,12.634,0,0,1-.688,2.19,17.751,17.751,0,0,1-.989,2.094,19.532,19.532,0,0,1-1.208,1.9,21.028,21.028,0,0,1-3.024,3.285,23.351,23.351,0,0,1-3.463,2.409,20.06,20.06,0,0,1-3.188,1.6l.66.075a15.2,15.2,0,0,1,2.089.373q.275.073.494.153c.147.053.311.1.5.151a8.152,8.152,0,0,1,1.044.406,3.123,3.123,0,0,1,.934.478,2.891,2.891,0,0,1,.5.289,5.157,5.157,0,0,0,.439.3,8.953,8.953,0,0,1,1.7,1.53,9.386,9.386,0,0,1,1.375,1.96q.273.57.494,1.117a6.009,6.009,0,0,1,.33,1.14,10.331,10.331,0,0,1,.357,2.486,13.55,13.55,0,0,1-.192,2.562,12.266,12.266,0,0,1-.576,2.478A16.332,16.332,0,0,1,57.9,57.857a16.154,16.154,0,0,1-1.348,2.2,17.188,17.188,0,0,1-1.621,1.905,16.778,16.778,0,0,1-3.792,3.005A16.367,16.367,0,0,1,49.1,66.075q-1.046.475-2.089.895a19.426,19.426,0,0,1-2.144.6q-1.046.229-2.09.372c-.183.024-.357.051-.521.073a2.61,2.61,0,0,1-.522.017l-.495.068-.275-.017-.275.038a10.884,10.884,0,0,1-2.09-.042,9.875,9.875,0,0,1-3.957-1.215,16.077,16.077,0,0,1-1.594-1.214,8.635,8.635,0,0,1-1.263-1.534c-.185-.268-.357-.548-.523-.837a5.5,5.5,0,0,1-.412-.908l-.33-.946a1.612,1.612,0,0,1-.11-.482q-.055-.046-.055-.267l-.055-.1v-.164a.869.869,0,0,1,.137-.765,1.156,1.156,0,0,1,.632-.444.789.789,0,0,1,.687-.013.817.817,0,0,1,.412.412l.055.213v.055l.055.1a.1.1,0,0,0,.027.081.1.1,0,0,1,.027.079,1.373,1.373,0,0,1,.082.181,1.32,1.32,0,0,0,.082.182,2.745,2.745,0,0,1,.165.362,2.6,2.6,0,0,0,.165.365c.147.237.293.454.441.655a6.433,6.433,0,0,0,.494.594,5.66,5.66,0,0,0,2.418,1.7,5.266,5.266,0,0,0,.715.26,4.823,4.823,0,0,0,.77.143,5.148,5.148,0,0,0,.741.062q.357.008.8,0a6,6,0,0,0,1.594-.218l.22-.031.109-.015.056-.007ZM24.2,67.642a7.228,7.228,0,0,1-.522.542,6.6,6.6,0,0,0-.522.539q-.276.258-.577.5c-.2.156-.412.323-.632.5a12.448,12.448,0,0,1-2.8,1.489,4.218,4.218,0,0,1-.742.242c-.239.05-.487.112-.742.184l-.715.1a1.243,1.243,0,0,1-.385,0l-.165.022-.056.007-.054.009-.056.008c-.256,0-.5-.005-.741-.01a3.777,3.777,0,0,1-.687-.068,3.255,3.255,0,0,1-1.429-.355,4.016,4.016,0,0,1-.687-.264q-.3-.152-.633-.326-.275-.238-.522-.48c-.164-.16-.339-.32-.521-.477a6.381,6.381,0,0,1-1.32-2.354,9.455,9.455,0,0,1-.275-2.608,9.31,9.31,0,0,1,.6-2.565c.073-.194.156-.387.248-.586s.192-.393.3-.593a7.646,7.646,0,0,1,.769-1.044.549.549,0,0,1,.824-.113.507.507,0,0,1,.165.582v.057a2.389,2.389,0,0,0-.165.463,4.4,4.4,0,0,1-.165.519,1.307,1.307,0,0,1-.027.252,1.333,1.333,0,0,0-.027.253,1.215,1.215,0,0,0-.055.449,6.053,6.053,0,0,0,.165,1.851,3.151,3.151,0,0,0,.66,1.451,2.4,2.4,0,0,0,.99.968,2.358,2.358,0,0,0,.33.146.926.926,0,0,1,.275.155l.66.076a3.006,3.006,0,0,0,.66-.037l.713-.1.056-.007v-.056l.055-.008.054-.007.221-.031a.491.491,0,0,1,.164-.077.49.49,0,0,0,.165-.078l.331-.156.329-.157c.184-.134.366-.27.551-.407a3.62,3.62,0,0,0,.55-.517q.11-.126.275-.285c.11-.108.2-.2.275-.287.072-.119.146-.232.22-.334s.146-.213.22-.333a12.9,12.9,0,0,0,.934-1.562c.072-.159.146-.306.22-.446s.147-.286.22-.443.137-.3.192-.442.118-.3.192-.493q.33-.874.66-1.911a20.927,20.927,0,0,0,.66-1.992q.275-1,.55-2.035.165-.517.3-1.032c.091-.345.173-.686.247-1.026s.156-.684.247-1.027.173-.7.247-1.082c.037-.188.073-.358.11-.511s.073-.322.11-.513.073-.367.11-.539.073-.35.11-.537l.22-1.079.22-1.079.879-4.365q.275-1.086.495-2.164t.495-2.218q.275-1.141.577-2.258t.687-2.273q.385-1.154.8-2.315T30.25,28.6a2.866,2.866,0,0,0,.275-.535,6.487,6.487,0,0,1,.33-.6,2,2,0,0,0,.165-.327c.037-.1.073-.183.11-.263a1.259,1.259,0,0,0,.192-.3,1.223,1.223,0,0,1,.192-.3l.33-.541a2.553,2.553,0,0,1,.385-.6,4.228,4.228,0,0,1,.357-.546c.128-.164.266-.349.412-.553q.275-.312.467-.561a4.521,4.521,0,0,1,.467-.5c.183-.209.348-.387.495-.538s.311-.308.495-.481a20.725,20.725,0,0,1,2.2-1.683,11.726,11.726,0,0,1,2.363-1.154A13.406,13.406,0,0,1,41.9,18.5a.851.851,0,0,1,.66.157.711.711,0,0,1,.275.6,1.044,1.044,0,0,1-.385.825c-.294.261-.577.513-.853.751s-.559.49-.851.751q-.716.761-1.375,1.569a17.915,17.915,0,0,0-1.868,3.289,15.452,15.452,0,0,0-.66,1.8c-.184.614-.366,1.246-.551,1.9s-.339,1.315-.467,1.994-.266,1.36-.412,2.042q-.165,1.071-.356,2.115t-.413,2.125q-.22,1.077-.412,2.153t-.467,2.214L33.274,45l-.5,2.22A5.47,5.47,0,0,1,32.5,48.3l-.275,1.141q-.055.285-.11.567a3.513,3.513,0,0,1-.165.573,3.447,3.447,0,0,0-.164.574,3.751,3.751,0,0,1-.165.575q-.278,1.141-.66,2.24-.166.575-.331,1.121T30.25,56.22l-.824,2.266q-.275.588-.495,1.171a10.453,10.453,0,0,1-.495,1.114,20.47,20.47,0,0,1-1.154,2.311,5.824,5.824,0,0,1-.66,1.139,6.936,6.936,0,0,1-.715,1.147,6.161,6.161,0,0,1-.357.572c-.129.184-.266.378-.412.582-.184.21-.34.4-.467.56s-.284.351-.467.56" transform="translate(-8.604 -8.598)" fill="#11361f"/>
      <path id="パス_52" data-name="パス 52" d="M88.028,37.265a.424.424,0,0,1,.241.332.857.857,0,0,1-.041.452,4.071,4.071,0,0,1-.281.525l-.24.56c-.08.173-.2.419-.361.74s-.3.58-.4.784q-.282.525-.543,1.048c-.175.348-.354.711-.541,1.089q-.322.53-.622,1.059c-.2.351-.408.691-.623,1.018q-.321.531-.662,1.066c-.227.355-.462.7-.7,1.028-.134.181-.261.355-.381.519L82.49,48q-.2.229-.442.487c-.16.17-.32.334-.481.493a11.148,11.148,0,0,1-1.083,1c-.108.068-.215.145-.322.227a2.625,2.625,0,0,1-.361.232,3.07,3.07,0,0,1-.882.366l-.079.051-.041.006-.12.017a.168.168,0,0,0-.1.034.173.173,0,0,1-.1.035l-.443.061a3.764,3.764,0,0,1-.963.012,3.16,3.16,0,0,1-1-.305,2.228,2.228,0,0,1-.8-.578,1.653,1.653,0,0,1-.562-.731,2.267,2.267,0,0,1-.361-.759,2.741,2.741,0,0,1-.221-.7q-.06-.356-.14-.709l-.12-1.32v-.08c-.133.289-.275.577-.421.868s-.3.583-.462.874q-.2.353-.441.73t-.481.736q-.281.362-.562.686c-.187.214-.388.433-.6.651a6.026,6.026,0,0,1-1.525,1.185,6.743,6.743,0,0,1-1.887.788.613.613,0,0,0-.24.074l-.04.006-.041.005-.041.006-.12.017-.48.066A3.675,3.675,0,0,1,65.4,52.53a2.612,2.612,0,0,1-1.124-.33,3.464,3.464,0,0,1-.963-.718,3.822,3.822,0,0,1-.682-.959,4.842,4.842,0,0,1-.221-.474c-.066-.168-.126-.328-.181-.482a5.663,5.663,0,0,1-.22-.961q-.061-.458-.1-.9v-.891c0-.3.014-.6.041-.9.026-.275.047-.547.06-.819a5.953,5.953,0,0,1,.1-.824c.027-.138.048-.271.06-.393a1.725,1.725,0,0,1,.1-.4c.054-.332.107-.609.161-.833q.081-.376.16-.772c.055-.265.108-.522.161-.774q.121-.38.221-.78c.066-.266.14-.525.22-.781.054-.249.121-.5.2-.757s.16-.508.241-.761c.079-.227.166-.47.261-.726s.18-.511.262-.765.166-.5.26-.745.181-.492.262-.746c.214-.488.414-.976.6-1.462s.388-.971.6-1.461a4.2,4.2,0,0,1,.322-.693,5.778,5.778,0,0,1,.322-.734,3.059,3.059,0,0,1,.16-.365,3.618,3.618,0,0,0,.161-.368l.2-.352.079-.172.081-.213a3.516,3.516,0,0,1,1.785-1.689,2.792,2.792,0,0,1,2.268-.052,2.355,2.355,0,0,1,1.4,1.546,3.015,3.015,0,0,1-.2,2.3l-.04.047-.281.606-.322.692-.321.653-.322.651c-.214.463-.415.909-.6,1.34s-.389.878-.6,1.34q-.6,1.339-1.164,2.674t-1.043,2.7c-.079.227-.154.446-.22.659s-.141.432-.221.66a1.1,1.1,0,0,0-.1.317,1.153,1.153,0,0,1-.1.319,1.142,1.142,0,0,0-.1.318,1.182,1.182,0,0,1-.1.318c-.054.223-.1.439-.139.646s-.088.412-.141.608a6.145,6.145,0,0,0-.119.625c-.028.193-.055.387-.081.578a2.667,2.667,0,0,0,0,.932,1.162,1.162,0,0,0,.041.359v.2a.33.33,0,0,1,.041.157.67.67,0,0,0,.16.179.346.346,0,0,0,.281.123.28.28,0,0,0,.1.026.35.35,0,0,1,.1.026l.041-.006.04,0,.04-.006v.041l.12-.016a2.383,2.383,0,0,0,.964-.175,2.916,2.916,0,0,0,1-.5c.16-.1.327-.221.5-.353a5.137,5.137,0,0,0,.5-.434c.161-.159.322-.322.481-.494a3.873,3.873,0,0,0,.442-.568,13.684,13.684,0,0,0,.843-1.169q.4-.624.762-1.241c.24-.439.462-.881.662-1.328s.408-.9.622-1.363c0-.026.007-.042.021-.044s.019-.016.019-.044c.053-.276.1-.539.14-.789s.088-.512.14-.789q.2-1.244.481-2.336.121-.583.261-1.15c.094-.379.194-.762.3-1.156s.214-.78.321-1.159.214-.765.322-1.159l.723-2.288c.053-.17.113-.346.18-.531s.126-.376.181-.573l.2-.6a.709.709,0,0,0,.1-.277.712.712,0,0,1,.1-.277,3.476,3.476,0,0,1,1.5-1.789,2.678,2.678,0,0,1,2.148-.339,2.342,2.342,0,0,1,1.565,1.3,2.638,2.638,0,0,1,.039,2.162.14.14,0,0,0-.039.087l-.041.006-.2.514-.2.514c-.08.2-.154.387-.221.558s-.127.341-.181.511q-.2.513-.42,1.052t-.421,1.051c-.135.368-.261.731-.383,1.085s-.246.7-.381,1.046q-.2.554-.361,1.083t-.361,1.043q-.2.554-.341,1.08a9.773,9.773,0,0,1-.341,1.04c-.107.366-.2.724-.281,1.072s-.161.692-.24,1.027q-.16.548-.261,1.049t-.181,1l-.12.989c0,.135-.007.279-.021.429s-.019.292-.019.427a1.938,1.938,0,0,1,.041.38,1.314,1.314,0,0,0,.041.338.764.764,0,0,1,.039.239.1.1,0,0,0,.041.074v.041c.026.023.026.037,0,.041v.041a.217.217,0,0,0,.16.017c0,.027.027.038.081.03l.079-.011.041-.006.2-.027a.408.408,0,0,1,.161-.063.268.268,0,0,0,.16-.1c.107-.069.221-.138.341-.21a4.093,4.093,0,0,0,.382-.255c.133-.126.262-.24.382-.336a3.218,3.218,0,0,0,.381-.378c.134-.126.267-.247.4-.36a3.614,3.614,0,0,0,.4-.4q.362-.415.743-.833c.253-.279.5-.569.743-.873s.481-.607.722-.911l.723-.91c.214-.328.441-.642.682-.947s.468-.618.683-.946A4.09,4.09,0,0,0,86,39.209a4.052,4.052,0,0,1,.461-.712l.322-.49a1.6,1.6,0,0,0,.161-.226c.053-.088.106-.177.16-.265a.646.646,0,0,1,.923-.251" transform="translate(-7.713 -8.447)" fill="#11361f"/>
      <path id="パス_53" data-name="パス 53" d="M107.262,34.463c.347.14.429.386.241.736v.041q-.482.959-.963,1.9t-.964,1.858c-.347.641-.7,1.271-1.042,1.886s-.709,1.234-1.084,1.851q-.081.134-.14.244a1.169,1.169,0,0,1-.14.2c-.054.089-.107.171-.161.244s-.107.157-.16.245c-.107.152-.208.3-.3.448a3.837,3.837,0,0,1-.342.453,5.418,5.418,0,0,1-.34.432c-.12.138-.248.284-.382.439a3.845,3.845,0,0,1-.843.847,3.728,3.728,0,0,1-1.043.793,2.777,2.777,0,0,1-.682.3,2.064,2.064,0,0,1-.8.112,3.161,3.161,0,0,1-.8-.132A1.474,1.474,0,0,1,96.628,47a4.11,4.11,0,0,1-.522-.455,1.186,1.186,0,0,0-.18-.259,1.187,1.187,0,0,1-.18-.259,4.716,4.716,0,0,1-.481-1.067c-.054-.182-.107-.356-.161-.525s-.108-.357-.161-.565a2.682,2.682,0,0,1-.1-.533c-.013-.173-.034-.353-.06-.538l-.12-1.078a26.529,26.529,0,0,1,.12-4.351q.162-1.238.482-2.661a12.446,12.446,0,0,1-1.687.356,12.681,12.681,0,0,1-2.647.247,17.22,17.22,0,0,1-2.007-.207.389.389,0,0,0-.06.089.384.384,0,0,1-.06.09,5.908,5.908,0,0,1-.521,1.085,5.571,5.571,0,0,1-.262.564q-.14.263-.3.528c-.079.172-.167.346-.261.522s-.193.351-.3.528c-.053.089-.106.177-.161.265s-.106.177-.16.267a4.567,4.567,0,0,1-.322.531.388.388,0,0,1-.28.22.6.6,0,0,1-.361-.01.525.525,0,0,1-.161-.626,5.178,5.178,0,0,0,.281-.524c.08-.174.16-.347.241-.52s.166-.348.261-.523.18-.349.262-.522c.079-.2.16-.388.239-.561s.161-.346.241-.519q.241-.56.442-1.074a.14.14,0,0,0,.04-.087c-.347-.14-.7-.294-1.043-.463a5.473,5.473,0,0,1-1-.63,3.979,3.979,0,0,1-1.044-1.029,4.31,4.31,0,0,1-.722-1.439,4.156,4.156,0,0,1-.121-1.726,4.571,4.571,0,0,1,.562-1.821,2.747,2.747,0,0,0,.281-.4,1.65,1.65,0,0,1,.162-.164,2.079,2.079,0,0,0,.161-.165,3.51,3.51,0,0,1,.321-.328q.16-.145.361-.294a3.146,3.146,0,0,1,.722-.384l.723-.263.361-.05.16-.022.041-.006.04-.005.08-.01.321-.046a1.969,1.969,0,0,1,.361-.01,2.423,2.423,0,0,0,.322.016,1.412,1.412,0,0,1,.361.05,2.62,2.62,0,0,1,.34.116l.342.155a1.472,1.472,0,0,1,.281.225c.08.083.16.174.24.27a1.135,1.135,0,0,1,.181.3c.04.1.087.217.14.345a.908.908,0,0,1,.1.31,2.352,2.352,0,0,0,.061.315,2.351,2.351,0,0,0,.019.343,2.131,2.131,0,0,1,.02.3,2.594,2.594,0,0,1-.02.348,2.093,2.093,0,0,0-.019.305,1.308,1.308,0,0,0-.041.309,1.35,1.35,0,0,1-.041.31q-.04.168-.12.584l.8-.112a15.8,15.8,0,0,0,3.653-1,8.771,8.771,0,0,0,.963-.356q.481-.209.963-.4c.321-.152.635-.3.944-.455s.635-.3.983-.461l.922-.331a2.329,2.329,0,0,1,1.967.092,2.2,2.2,0,0,1,1.163,1.539,2.723,2.723,0,0,1-.1,1.493,3.124,3.124,0,0,1-.822,1.269,12.563,12.563,0,0,0-1.083,1.245q-.241.357-.482.735c-.161.252-.307.509-.442.77A22.657,22.657,0,0,0,98.554,37.7c-.081.308-.161.61-.241.9s-.161.6-.24.9c-.027.139-.054.291-.08.458s-.054.318-.08.456a4.027,4.027,0,0,0-.06.454,4.2,4.2,0,0,1-.061.454,5.273,5.273,0,0,0-.079.9v.892a2.018,2.018,0,0,1,.04.4,2.027,2.027,0,0,0,.04.4,2.2,2.2,0,0,0,.2.7,1.542,1.542,0,0,0,.24.452.493.493,0,0,0,.121.146c.026.022.046.035.06.033s.033.009.059.031a.172.172,0,0,1,.081.01.164.164,0,0,0,.079.009.5.5,0,0,0,.141-.04.456.456,0,0,1,.14-.041,1.69,1.69,0,0,0,.321-.166c.107-.068.226-.138.361-.213a3.382,3.382,0,0,0,.722-.586A5.427,5.427,0,0,0,101,43.6l.683-.784a2.349,2.349,0,0,0,.16-.2c.055-.074.108-.142.161-.2a3.52,3.52,0,0,1,.322-.408,29.577,29.577,0,0,0,2.246-3.474q.281-.443.522-.883t.481-.917q.241-.479.481-.938c.162-.306.308-.617.443-.932a.591.591,0,0,1,.32-.328.637.637,0,0,1,.442-.062M86.675,28.454a1.346,1.346,0,0,0,.241.472,2.565,2.565,0,0,0,.361.376l.481.3a2.41,2.41,0,0,1,.281.122,2.049,2.049,0,0,0,.281.123,2.018,2.018,0,0,0,.521.191,5.522,5.522,0,0,0,.6.1c.053-.277.094-.472.12-.583a1.83,1.83,0,0,1,.02-.286,1.564,1.564,0,0,0,.019-.246.865.865,0,0,0,.041-.27v-.264a1.9,1.9,0,0,0-.16-.868,1.774,1.774,0,0,0-.2-.3.915.915,0,0,0-.241-.168,1.424,1.424,0,0,0-.761-.057,1.313,1.313,0,0,0-.2.049,1.562,1.562,0,0,1-.24.053v.041l-.041.006-.04.005-.041.005a.14.14,0,0,0-.079.052.356.356,0,0,0-.121.037.163.163,0,0,1-.079.032,1.711,1.711,0,0,0-.6.53.452.452,0,0,0-.12.3.617.617,0,0,0-.041.248" transform="translate(-7.347 -8.437)" fill="#11361f"/>
      <path id="パス_54" data-name="パス 54" d="M115.3,54.29c-.186.377-.375.748-.562,1.112s-.388.735-.6,1.117-.436.755-.663,1.125-.474.735-.742,1.1a7.186,7.186,0,0,1-.421.586c-.147.181-.288.363-.421.545q-.241.275-.481.553t-.522.559q-.281.241-.581.507c-.2.175-.408.346-.623.512l-.079.051-.081.093a.362.362,0,0,1-.12.057.133.133,0,0,0-.079.052.442.442,0,0,1-.2.129.417.417,0,0,0-.2.128c-.134.073-.269.139-.4.2s-.268.124-.4.2c-.3.1-.575.181-.843.26a3.673,3.673,0,0,1-.843.137,4.843,4.843,0,0,1-1.684-.049,4.372,4.372,0,0,1-1.566-.592,3.687,3.687,0,0,1-1.244-1.246,3.09,3.09,0,0,1-.441-.789,5.115,5.115,0,0,1-.242-.858,5.4,5.4,0,0,1,.041-1.748,5.9,5.9,0,0,1,.4-1.555,11.486,11.486,0,0,1,.641-1.385,1.809,1.809,0,0,1,.181-.308,1.778,1.778,0,0,0,.18-.31,3.072,3.072,0,0,0,.2-.31l.079-.132.041-.088.04-.046.04-.006c.08-.118.155-.223.222-.315s.139-.194.22-.313c.08-.093.161-.184.24-.277a2.014,2.014,0,0,1,.242-.236,8.283,8.283,0,0,1,1-.991c.161-.157.321-.3.481-.431l.481-.391q.481-.432.984-.805t.982-.725c.322-.262.648-.5.983-.724s.663-.452.983-.685q.963-.661,1.966-1.326l1.807-1.224c.053-.2.113-.395.18-.592s.126-.4.18-.592q.681-2.243,1.2-4.341a8.336,8.336,0,0,0,.261-.927c.066-.306.14-.614.221-.922-.08.173-.168.342-.261.5s-.194.318-.3.467a10.817,10.817,0,0,1-.843,1.252c-.16.183-.321.376-.481.573a5,5,0,0,1-.562.584,7.239,7.239,0,0,1-1.324,1.035c-.134.073-.268.139-.4.2s-.267.125-.4.2a1.434,1.434,0,0,1-.4.136.3.3,0,0,0-.12.037.3.3,0,0,1-.121.039l-.12.015-.04.006-.04.006a2.006,2.006,0,0,1-.482.087c-.161.01-.322.011-.481.007-.134-.009-.287-.028-.462-.058s-.34-.06-.5-.093c-.133-.062-.275-.13-.421-.2a3.672,3.672,0,0,1-.421-.245,3.873,3.873,0,0,1-.683-.674,3.416,3.416,0,0,1-.441-.75c-.054-.127-.1-.249-.14-.365s-.088-.236-.14-.364a7.837,7.837,0,0,1-.281-1.542,6.577,6.577,0,0,1-.04-.724v-.729c0-.243.006-.488.02-.732s.034-.477.06-.7q.079-.7.22-1.409t.341-1.425c.134-.478.268-.941.4-1.392s.3-.9.482-1.363a13.314,13.314,0,0,1,.562-1.355q.321-.673.642-1.326a17.832,17.832,0,0,1,1.725-2.671q.481-.594,1.083-1.245a7.635,7.635,0,0,1,1.284-1.151,6.3,6.3,0,0,1,.762-.531q.4-.238.843-.5a7.1,7.1,0,0,1,1.846-.621,9.561,9.561,0,0,1,1.966-.153,9.322,9.322,0,0,1,1.765.362q.4.147.783.317a5.819,5.819,0,0,1,.7.367c.134.09.247.169.342.236s.193.135.3.2a2.178,2.178,0,0,1,.321.238l.12.106.16.1a2.358,2.358,0,0,1,.883,1.821,3.094,3.094,0,0,1-.723,2.087,3.352,3.352,0,0,1-1.927,1.139,2.267,2.267,0,0,1-1.965-.476l-.161-.139-.041-.074-.039-.036-.081-.071-.16-.138c-.054-.046-.108-.093-.161-.14l-.161-.139c-.107-.065-.208-.133-.3-.2a6.543,6.543,0,0,0-.6-.3,1.252,1.252,0,0,1-.262-.1c-.107-.012-.2-.019-.282-.023a1.821,1.821,0,0,0-.28.019,1.735,1.735,0,0,0-.6.125,4.95,4.95,0,0,0-.682.337,4.873,4.873,0,0,0-.743.55q-.382.337-.742.71a11.626,11.626,0,0,0-1.4,1.817q-.322.492-.6,1t-.562,1.071q-.281.525-.521,1.086c-.161.373-.308.745-.442,1.115q-.2.594-.36,1.144c-.108.366-.2.743-.282,1.134a10.392,10.392,0,0,0-.24,2.179v.487a1.433,1.433,0,0,0,.079.475,2.22,2.22,0,0,0,.2.7.357.357,0,0,0,.161.18.2.2,0,0,0,.161.14.238.238,0,0,0,.2.052.645.645,0,0,0,.321.038l.041-.006.041-.005.04-.006.08-.011.16-.022a.779.779,0,0,1,.221-.071A.427.427,0,0,0,111,40.18q.2-.107.421-.24c.147-.088.3-.184.461-.287.133-.1.275-.214.421-.342a4.582,4.582,0,0,0,.421-.422l.4-.463c.134-.153.268-.305.4-.461a20.244,20.244,0,0,0,1.444-2.1q.321-.571.622-1.121t.622-1.159c.107-.2.208-.4.3-.588s.182-.384.262-.585c.053-.114.1-.217.14-.3s.087-.186.141-.3l.119-.3.08-.132.04-.168.081-.173a3.327,3.327,0,0,1,1.243-1.875,2.958,2.958,0,0,1,2.088-.655,2.241,2.241,0,0,1,1.785.986,2.592,2.592,0,0,1,.382,2.074.042.042,0,0,1-.041.047l-.12.584-.12.583c-.054.2-.1.386-.14.567s-.087.37-.14.567q-.16.591-.3,1.156t-.3,1.155q-.322,1.1-.6,2.129t-.6,2.131a4.421,4.421,0,0,1,.4-.34,4.537,4.537,0,0,0,.4-.34q.441-.385.882-.772l.883-.77a10.429,10.429,0,0,0,.823-.8q.38-.418.782-.839.8-.841,1.525-1.752a8.147,8.147,0,0,0,.682-.9,8.447,8.447,0,0,0,.6-.854c.267-.415.455-.7.562-.848v-.041a.627.627,0,0,1,.322-.247.529.529,0,0,1,.4.025.43.43,0,0,1,.16.626,6.914,6.914,0,0,1-.361.659q-.24.4-.481.817c-.16.278-.321.545-.481.795s-.294.466-.4.643q-.321.531-.683,1.027l-.722.992c-.268.334-.528.654-.783.959s-.528.615-.822.926q-.8.922-1.646,1.768-.8.8-1.624,1.542t-1.625,1.5l-.361,1.023q-.2.6-.4,1.129c-.133.357-.268.733-.4,1.13q-.443,1.2-.883,2.271-.441,1.115-.922,2.234T115.3,54.29m-4.253-1.554q.481-1.041.843-2.062a1.184,1.184,0,0,0,.121-.281,1.044,1.044,0,0,1,.12-.28,2.816,2.816,0,0,0-.281.2,3.1,3.1,0,0,1-.282.2q-.441.385-.882.751t-.882.751q-.924.776-1.725,1.5-.4.38-.742.77t-.664.762l-.161.184c-.053.061-.107.121-.16.184a.844.844,0,0,0-.2.352l-.161.183a.544.544,0,0,1-.06.111.5.5,0,0,0-.06.109,2.113,2.113,0,0,1-.2.393q-.16.345-.322.774a1.686,1.686,0,0,0-.1.38,1.7,1.7,0,0,1-.06.292,1.814,1.814,0,0,0,.04.479.311.311,0,0,0,.041.177,1.043,1.043,0,0,1,.079.13.993.993,0,0,0,.241.17,1.227,1.227,0,0,0,.4.147,2.121,2.121,0,0,0,.481-.027,2.435,2.435,0,0,0,.522-.153l.24-.156a.2.2,0,0,0,.121-.056l.04-.047.041-.006v-.041a1.338,1.338,0,0,0,.281-.241,3.3,3.3,0,0,1,.28-.282,5.267,5.267,0,0,0,.582-.709q.261-.38.543-.824c.186-.3.361-.6.522-.9s.333-.621.521-.944q.241-.479.461-.975t.421-1.011" transform="translate(-7.058 -8.551)" fill="#11361f"/>
      <path id="パス_55" data-name="パス 55" d="M149.795,31.884l-.723.992-.723.992q-.762.956-1.565,1.9t-1.724,1.84c-.3.311-.6.609-.9.895s-.635.575-.982.867a22,22,0,0,1-2.046,1.622,17.093,17.093,0,0,1-2.288,1.492l-.642.334a7.011,7.011,0,0,1-.642.291c-.215.084-.435.162-.662.233s-.462.153-.7.24a2.975,2.975,0,0,1-.683.175q-.36.052-.723.1a6.541,6.541,0,0,1-1.524.051,4.532,4.532,0,0,1-1.525-.275,5.467,5.467,0,0,1-.763-.259q-.36-.151-.723-.345a5.759,5.759,0,0,1-1.244-.962,6.5,6.5,0,0,1-.521-.594c-.161-.208-.308-.409-.442-.608a4.5,4.5,0,0,1-.36-.638,6.969,6.969,0,0,1-.282-.69,8.833,8.833,0,0,1-.361-1.409,6.714,6.714,0,0,1-.18-1.353q-.02-.684.02-1.381t.14-1.356c.067-.441.155-.872.261-1.292a22.15,22.15,0,0,1,1.886-4.881c.187-.4.387-.789.6-1.157s.442-.73.682-1.088.481-.707.723-1.052a12.4,12.4,0,0,1,.8-1.023,5.908,5.908,0,0,1,.443-.528c.161-.171.307-.333.442-.487.16-.157.321-.308.48-.452s.322-.294.481-.452q.522-.476,1.064-.9a12.465,12.465,0,0,1,1.144-.787q.522-.315,1.244-.7c.214-.083.435-.169.663-.254s.461-.172.7-.26a4.911,4.911,0,0,1,.743-.2,3.166,3.166,0,0,1,.782-.049c.267-.009.542-.006.822.007a3.576,3.576,0,0,1,.864.164,4.2,4.2,0,0,1,1.563.836,3.93,3.93,0,0,1,1.125,1.383,6.538,6.538,0,0,1,.561,1.543,11.218,11.218,0,0,1,.121,1.6,9.463,9.463,0,0,1-.121,1.515c-.053.251-.114.5-.18.736s-.127.469-.18.693q-.243.722-.542,1.412a8.951,8.951,0,0,1-.742,1.36,7.426,7.426,0,0,1-.923,1.3,5.534,5.534,0,0,1-1.2,1.222q-.322.287-.723.586a.8.8,0,0,0-.2.109l-.121.057a.14.14,0,0,1-.08.052,3.591,3.591,0,0,1-.321.167,7.339,7.339,0,0,1-1.284.542,9.262,9.262,0,0,1-2.768.587l-.722-.02a3.431,3.431,0,0,1-.342-.035,2.716,2.716,0,0,1-.34-.073,4.855,4.855,0,0,1-1.286-.429,1.806,1.806,0,0,1-.3-.14,1.554,1.554,0,0,1-.261-.187.877.877,0,0,1-.241-.169,1.536,1.536,0,0,1-.281-.2c-.134-.145-.268-.288-.4-.431s-.268-.3-.4-.471a.1.1,0,0,1-.039-.076.1.1,0,0,0-.041-.074v.647a7.454,7.454,0,0,0,.061.984c.04.305.086.6.14.893a5.685,5.685,0,0,0,.22.84,7.8,7.8,0,0,0,.3.749,3.173,3.173,0,0,0,.722,1.115,1.834,1.834,0,0,0,.4.39q.2.134.441.263a1.425,1.425,0,0,0,.462.2,4.632,4.632,0,0,0,.582.1,3.376,3.376,0,0,0,.682.087c.241.007.508.017.8.031.134-.019.275-.032.421-.039s.288-.02.421-.039a2.479,2.479,0,0,0,.883-.123,12.718,12.718,0,0,0,1.927-.511q.481-.188.963-.416t.962-.5c.322-.179.635-.373.944-.577s.609-.408.9-.613q.924-.653,1.827-1.387t1.745-1.541c.134-.125.275-.253.422-.383a4.248,4.248,0,0,0,.421-.423c.132-.125.274-.266.421-.422s.287-.309.421-.464.334-.362.6-.63.466-.476.6-.631a4.661,4.661,0,0,1,.4-.419l.16-.226.2-.23a.58.58,0,0,1,.843-.159.529.529,0,0,1,.08.76l-.08.131-.08.132-.2.272c-.054.089-.107.17-.16.245s-.108.157-.161.244c-.108.177-.281.424-.522.742s-.428.566-.561.746m-17.337-5.245a8.694,8.694,0,0,0-.421.991c-.12.341-.235.681-.341,1.02a9.516,9.516,0,0,0-.4,1.919l.041.036c.321.172.629.318.923.44a2.794,2.794,0,0,0,.923.235.279.279,0,0,0,.1.026.355.355,0,0,1,.1.026.28.28,0,0,1,.12,0,.245.245,0,0,0,.12.005.657.657,0,0,0,.221.008.688.688,0,0,1,.221.01,4.568,4.568,0,0,0,1.686-.4c.267-.118.528-.248.783-.393s.515-.3.783-.474q.2-.148.382-.3c.12-.1.247-.2.381-.3a.4.4,0,0,1,.08-.072.413.413,0,0,0,.08-.071l.04-.046.041-.047a.252.252,0,0,0,.1-.1.8.8,0,0,1,.1-.135,2.042,2.042,0,0,0,.181-.247c.066-.1.126-.2.18-.289a2.181,2.181,0,0,0,.361-.738,3.6,3.6,0,0,0,.322-.754c.08-.268.146-.54.2-.817.026-.139.053-.272.08-.4a1.95,1.95,0,0,0,.04-.391,2.091,2.091,0,0,0,.04-.369v-.365a1.086,1.086,0,0,0,.02-.347,1.989,1.989,0,0,1-.02-.3,1.865,1.865,0,0,0-.019-.282,1.233,1.233,0,0,1-.02-.2.669.669,0,0,1-.04-.218.378.378,0,0,0-.041-.176.606.606,0,0,0-.12-.306,2.007,2.007,0,0,1-.162-.161.585.585,0,0,0-.239-.149,1.955,1.955,0,0,0-.683-.229,1.371,1.371,0,0,0-.421-.043,4.136,4.136,0,0,1-.421,0,2.5,2.5,0,0,0-.882.122,5.1,5.1,0,0,0-1.765.894,4.837,4.837,0,0,0-.8.72c-.24.25-.467.511-.682.785a11.107,11.107,0,0,0-1.163,1.863" transform="translate(-6.627 -8.422)" fill="#11361f"/>
      <path id="パス_56" data-name="パス 56" d="M170.937,25.6c.347.141.428.386.241.737v.04q-.482.96-.963,1.9t-.965,1.858c-.346.642-.7,1.272-1.042,1.886s-.709,1.235-1.084,1.852c-.053.09-.1.17-.14.244a1.1,1.1,0,0,1-.139.2c-.055.09-.107.171-.161.245s-.108.157-.16.244c-.108.152-.208.3-.3.448a3.673,3.673,0,0,1-.342.453c-.108.151-.221.294-.341.433s-.247.284-.381.438a3.868,3.868,0,0,1-.843.847,3.732,3.732,0,0,1-1.044.793,2.807,2.807,0,0,1-.682.3,2.062,2.062,0,0,1-.8.111,3.117,3.117,0,0,1-.8-.131,1.489,1.489,0,0,1-.683-.35,4.012,4.012,0,0,1-.521-.455,1.215,1.215,0,0,0-.18-.258,1.211,1.211,0,0,1-.18-.259,4.725,4.725,0,0,1-.483-1.068q-.079-.272-.161-.524c-.053-.169-.107-.357-.16-.566a2.6,2.6,0,0,1-.1-.533c-.012-.173-.033-.353-.059-.537l-.12-1.078a26.527,26.527,0,0,1,.12-4.351q.16-1.238.481-2.662a12.1,12.1,0,0,1-1.685.356,12.623,12.623,0,0,1-2.648.247,16.982,16.982,0,0,1-2.006-.207.45.45,0,0,0-.061.089.371.371,0,0,1-.059.091,5.876,5.876,0,0,1-.522,1.085,5.665,5.665,0,0,1-.261.564q-.14.263-.3.528c-.08.172-.168.346-.261.521s-.194.351-.3.528c-.053.09-.107.177-.161.266s-.106.177-.161.266a4.225,4.225,0,0,1-.321.531.386.386,0,0,1-.281.221.609.609,0,0,1-.361-.01.525.525,0,0,1-.16-.626,5.3,5.3,0,0,0,.28-.525l.241-.519c.08-.175.166-.349.261-.524s.181-.348.262-.521q.119-.3.24-.561c.081-.173.161-.347.241-.52.161-.373.307-.732.441-1.074a.132.132,0,0,0,.041-.085c-.347-.141-.7-.3-1.043-.463a5.509,5.509,0,0,1-1-.631,3.975,3.975,0,0,1-1.043-1.029,4.255,4.255,0,0,1-.722-1.439,4.121,4.121,0,0,1-.121-1.726,4.555,4.555,0,0,1,.562-1.82,2.911,2.911,0,0,0,.281-.4,1.628,1.628,0,0,1,.161-.163,1.94,1.94,0,0,0,.161-.166,3.641,3.641,0,0,1,.321-.328c.108-.1.228-.194.362-.293a3.029,3.029,0,0,1,.722-.384l.723-.264.36-.049.161-.022.04-.006.04-.006.08-.01.322-.045a1.8,1.8,0,0,1,.361-.01,2.409,2.409,0,0,0,.321.016,1.413,1.413,0,0,1,.361.05,2.454,2.454,0,0,1,.341.115c.094.042.207.093.341.155a1.522,1.522,0,0,1,.282.225c.08.084.16.175.24.27a1.148,1.148,0,0,1,.18.3q.061.154.14.345a.917.917,0,0,1,.1.31,2.192,2.192,0,0,0,.061.316,2.5,2.5,0,0,0,.018.342,1.984,1.984,0,0,1,.021.3,2.421,2.421,0,0,1-.021.348,2.264,2.264,0,0,0-.018.306,1.263,1.263,0,0,0-.042.309,1.281,1.281,0,0,1-.041.309c-.025.113-.066.307-.119.584l.8-.111a15.793,15.793,0,0,0,3.652-1,8.8,8.8,0,0,0,.964-.357q.481-.208.963-.4c.321-.152.634-.3.943-.455s.634-.3.982-.461l.923-.331a2.327,2.327,0,0,1,1.966.091,2.2,2.2,0,0,1,1.164,1.539,2.733,2.733,0,0,1-.1,1.493,3.138,3.138,0,0,1-.822,1.27,12.561,12.561,0,0,0-1.084,1.244c-.16.239-.321.483-.481.736s-.307.509-.442.77a22.646,22.646,0,0,0-1.485,3.488c-.08.309-.16.611-.24.9s-.162.6-.241.9c-.027.139-.053.291-.08.457s-.054.319-.079.456a4.076,4.076,0,0,0-.061.455,4.164,4.164,0,0,1-.06.453,5.186,5.186,0,0,0-.079.9v.891a2.113,2.113,0,0,1,.04.4,2.01,2.01,0,0,0,.04.4,2.219,2.219,0,0,0,.2.7,1.587,1.587,0,0,0,.241.453.5.5,0,0,0,.12.146c.026.022.047.034.06.032s.034.01.06.032a.146.146,0,0,1,.08.01.156.156,0,0,0,.08.008.486.486,0,0,0,.14-.039.437.437,0,0,1,.14-.041,1.766,1.766,0,0,0,.322-.167c.106-.068.226-.138.36-.213a3.3,3.3,0,0,0,.722-.586,5.289,5.289,0,0,0,.683-.662l.682-.785a2.142,2.142,0,0,0,.161-.2c.054-.075.108-.142.161-.206a3.467,3.467,0,0,1,.322-.408,29.694,29.694,0,0,0,2.246-3.473q.281-.443.522-.883t.48-.918c.162-.319.322-.632.482-.937s.308-.617.442-.933a.6.6,0,0,1,.321-.328.647.647,0,0,1,.442-.062M150.35,19.592a1.353,1.353,0,0,0,.24.472,2.674,2.674,0,0,0,.362.375l.48.3a2.261,2.261,0,0,1,.281.123,2.27,2.27,0,0,0,.282.122,1.92,1.92,0,0,0,.521.191,5.518,5.518,0,0,0,.6.1c.052-.277.094-.472.12-.584a1.974,1.974,0,0,1,.019-.286,1.565,1.565,0,0,0,.02-.246.884.884,0,0,0,.041-.269v-.264a1.911,1.911,0,0,0-.161-.869,1.81,1.81,0,0,0-.2-.3.987.987,0,0,0-.241-.168,1.429,1.429,0,0,0-.762-.056,1.31,1.31,0,0,0-.2.048,1.553,1.553,0,0,1-.241.054v.041l-.04.005-.041.005-.04.006a.135.135,0,0,0-.08.052.328.328,0,0,0-.121.037.169.169,0,0,1-.079.032,1.719,1.719,0,0,0-.6.529.452.452,0,0,0-.12.3.647.647,0,0,0-.04.249" transform="translate(-6.305 -8.454)" fill="#11361f"/>
      <path id="パス_57" data-name="パス 57" d="M145.6,63.91a10.187,10.187,0,0,1-1.014,1.408q-.53.707-1.134,1.376a16.266,16.266,0,0,1-1.325,1.3q-.34.292-.7.584c-.239.2-.507.4-.8.6a7.444,7.444,0,0,1-1.736.924,6.564,6.564,0,0,1-1.93.561l-.241.034-.724,1.269a26.118,26.118,0,0,1-1.979,2.956,15.977,15.977,0,0,1-1.231,1.437q-.652.675-1.375,1.312l-.773.594c-.258.2-.53.4-.818.6q-.244.131-.435.231t-.435.23a4.268,4.268,0,0,1-.917.47,2.005,2.005,0,0,1-.458.184q-.217.055-.458.137c-.162.055-.322.1-.481.14s-.323.085-.484.14l-.241.034-.144.019-.049.007-.05.007a2.135,2.135,0,0,1-.48.115,2.613,2.613,0,0,0-.507.022,3.4,3.4,0,0,1-.555.028,7.941,7.941,0,0,1-2.123-.29,5.253,5.253,0,0,1-1.014-.444,8.379,8.379,0,0,1-.917-.6,5.152,5.152,0,0,1-1.4-1.608,9.458,9.458,0,0,1-.482-.931,7.194,7.194,0,0,1-.337-.951,9.928,9.928,0,0,1-.434-1.889,4.677,4.677,0,0,1-.1-.935,9.028,9.028,0,0,0-.049-.944,22.684,22.684,0,0,1,.291-3.645q.143-.9.337-1.776t.434-1.74q.481-1.675,1.157-3.427a30.609,30.609,0,0,1,1.546-3.38,17.456,17.456,0,0,1,.939-1.69q.507-.8,1.134-1.668a8.2,8.2,0,0,1,.628-.817q.336-.388.724-.783a15.027,15.027,0,0,1,1.64-1.592,9.772,9.772,0,0,1,2.123-1.417,3.176,3.176,0,0,1,.6-.3c.211-.077.427-.164.653-.262l.724-.246.384-.054a.116.116,0,0,0,.074-.034.207.207,0,0,1,.121-.042l.1-.014.046-.006a3.436,3.436,0,0,1,1.954.167,3.138,3.138,0,0,1,1.424,1.118,10.067,10.067,0,0,1,1.737-.389c.193.006.386,0,.579-.007a3.2,3.2,0,0,1,.626.035,5.645,5.645,0,0,1,1.159.375,5.031,5.031,0,0,1,1.014.687,7.236,7.236,0,0,1,.674.88,4.469,4.469,0,0,1,.458.911,6.371,6.371,0,0,1,.266.936q.1.473.146.906a8.435,8.435,0,0,1,.048.918,12.615,12.615,0,0,1-.022,1.733q-.075.863-.219,1.71a31.4,31.4,0,0,1-.724,3.317q-.241.863-.482,1.65t-.579,1.614c-.064.2-.137.4-.216.591s-.154.387-.218.59c.161-.055.321-.1.483-.14a2.064,2.064,0,0,0,.482-.188c.191-.093.393-.192.6-.3s.428-.23.651-.359A12.228,12.228,0,0,0,142,65.044q.6-.473,1.182-.992c.193-.188.38-.377.555-.565s.362-.375.556-.564a7.329,7.329,0,0,0,.555-.613c.176-.22.345-.421.507-.607a1,1,0,0,1,.53-.342.584.584,0,0,1,.531.146.668.668,0,0,1,.145.955q-.243.374-.482.725t-.482.724M132.81,71.827a12.073,12.073,0,0,0,.916-1.2.049.049,0,0,0,.049-.055,2.826,2.826,0,0,1-.41-.137,2.922,2.922,0,0,0-.408-.137c-.323-.117-.629-.246-.919-.385a8.365,8.365,0,0,1-.82-.446,10.458,10.458,0,0,1-2.6-2.658,2.243,2.243,0,0,1-.289-.35l-.049-.138-.048.006v-.1a.3.3,0,0,1-.072-.088.345.345,0,0,0-.071-.088c-.066-.154-.139-.305-.219-.457s-.152-.3-.217-.457a9.865,9.865,0,0,1-.579-1.868,9.681,9.681,0,0,1-.191-2.019V60.67a.426.426,0,0,0-.074.107.416.416,0,0,1-.072.108,20.976,20.976,0,0,0-1.446,2.54,26.55,26.55,0,0,0-2.027,5.348c-.1.468-.186.919-.266,1.353a11.546,11.546,0,0,0-.168,1.337,7.757,7.757,0,0,0,.047,2.331,3.849,3.849,0,0,0,.241.943c.065.12.127.234.193.338s.128.2.193.29l.265.231a.99.99,0,0,0,.314.176A3.417,3.417,0,0,0,124.9,76a1.585,1.585,0,0,0,.53.024.488.488,0,0,1,.24.015l.146-.02.146-.021.58-.08a1.632,1.632,0,0,0,.288-.065,2.185,2.185,0,0,1,.29-.064,8.158,8.158,0,0,0,2.364-1.06,18.218,18.218,0,0,0,2.266-1.777c.193-.188.38-.377.556-.564s.346-.373.507-.558m3.185-17.737a2.051,2.051,0,0,0-1.4,1.121,3.459,3.459,0,0,0-.29.431c-.031.069-.065.148-.1.232a2.34,2.34,0,0,1-.1.233,3.679,3.679,0,0,0-.289,1.063c-.064.367-.129.717-.192,1.05a10.276,10.276,0,0,0-.146,1.042,5.321,5.321,0,0,0-.072.547c-.017.2-.024.377-.024.538a1.852,1.852,0,0,0-.023.515c.015.177.023.362.023.557a2.5,2.5,0,0,1,.049.5,1.661,1.661,0,0,0,.1.547,1.5,1.5,0,0,0,.1.474v.147c0,.033.015.047.05.042v.1a.358.358,0,0,1,.046.139.332.332,0,0,0,.049.14,7.8,7.8,0,0,0,.917,1.967,2.415,2.415,0,0,0,.313.393c.114.116.232.244.361.389a2.278,2.278,0,0,0,.386.287.883.883,0,0,0,.242.113c.1-.273.2-.539.314-.8s.217-.524.313-.8c.159-.475.313-.961.458-1.451s.282-.988.41-1.493a11.178,11.178,0,0,0,.29-1.454c.063-.5.129-.992.192-1.488a14.28,14.28,0,0,0,.024-1.44,13.341,13.341,0,0,0-.12-1.372,3.619,3.619,0,0,0-.291-1.177,2.22,2.22,0,0,0-.481-.859,1.221,1.221,0,0,0-.289-.2.244.244,0,0,0-.243-.112.178.178,0,0,1-.095-.01.312.312,0,0,0-.146-.005,1.184,1.184,0,0,0-.337.1" transform="translate(-6.791 -8.293)" fill="#11361f"/>
      <path id="パス_58" data-name="パス 58" d="M168.975,55.7a.514.514,0,0,1,.12.59,4.9,4.9,0,0,0-.2.474l-.24.479a3.1,3.1,0,0,1-.161.366c-.08.16-.168.327-.261.5s-.188.344-.282.5a2.137,2.137,0,0,0-.18.369,9.968,9.968,0,0,1-.441.913c-.16.292-.322.6-.481.918-.187.324-.361.63-.522.924s-.336.586-.521.882a4.493,4.493,0,0,0-.282.443,4.519,4.519,0,0,1-.281.445q-.16.226-.3.448t-.3.447q-.322.45-.622.876t-.663.882a12.309,12.309,0,0,1-1.605,1.681c-.16.158-.321.3-.48.432s-.336.263-.522.4c-.188.108-.389.223-.6.347a4.319,4.319,0,0,1-.683.319c-.133.044-.267.091-.4.136a2.221,2.221,0,0,1-.4.1l-.441.061a1.48,1.48,0,0,1-.241.013c-.08,0-.175-.01-.281-.021a1.388,1.388,0,0,0-.261-.025.559.559,0,0,1-.262-.064c-.106-.04-.207-.073-.3-.1s-.193-.061-.3-.1a4.224,4.224,0,0,1-.48-.378.722.722,0,0,1-.221-.193c-.066-.084-.127-.164-.18-.237a3.486,3.486,0,0,1-.442-.87,4.035,4.035,0,0,1-.121-.409c-.025-.118-.053-.242-.08-.374a3.74,3.74,0,0,1-.079-.719v-.647a4.965,4.965,0,0,0,.041-.615,4.168,4.168,0,0,1,.039-.571c.027-.193.055-.38.08-.56s.054-.351.081-.517q.079-.577.18-1.079c.066-.333.14-.668.221-1l.481-2.011q.24-.966.5-1.935t.5-1.933c.08-.308.154-.615.221-.922s.141-.614.222-.923.154-.608.22-.9.127-.578.18-.856c.027-.138.067-.32.121-.544a.174.174,0,0,0-.1.035.1.1,0,0,1-.061.028,1.865,1.865,0,0,0-.36.212,2.581,2.581,0,0,0-.362.234,2.463,2.463,0,0,1-.36.231c-.242.169-.481.352-.723.548a5.418,5.418,0,0,0-.682.662,3.53,3.53,0,0,0-.322.329c-.107.122-.215.245-.321.368s-.208.244-.3.365-.193.244-.3.366c-.376.512-.742,1.041-1.1,1.592s-.717,1.106-1.064,1.667a9.725,9.725,0,0,1-.52.883l-.242.439c-.08.147-.16.292-.241.438q-.2.435-.441.852a8.165,8.165,0,0,0-.441.892q-.443.913-.864,1.822t-.782,1.811q-.2.475-.361.922c-.107.3-.228.607-.36.92-.055.145-.108.3-.162.469s-.106.326-.16.467a3.972,3.972,0,0,0-.141.465,3.956,3.956,0,0,1-.139.466.04.04,0,0,0-.04.046l-.08.415a3.264,3.264,0,0,1-1.144,2,3.011,3.011,0,0,1-2.108.759,2.211,2.211,0,0,1-1.8-.924,2.667,2.667,0,0,1-.442-2.087.629.629,0,0,1,.04-.247l5.3-20.146a2.158,2.158,0,0,1,.883-1.277,2.015,2.015,0,0,1,1.444-.384,1.587,1.587,0,0,1,1.123.675,1.726,1.726,0,0,1,.281,1.317l-2.086,11.839q.159-.427.32-.856c.108-.284.214-.582.321-.9.055-.141.115-.3.182-.47s.125-.328.18-.47a3.4,3.4,0,0,1,.2-.495,3.3,3.3,0,0,0,.2-.494c.267-.631.543-1.263.822-1.9s.582-1.27.9-1.909a3.135,3.135,0,0,1,.221-.457c.093-.161.179-.329.261-.5l.481-.958c.187-.324.366-.652.541-.987s.367-.679.582-1.034c.107-.149.214-.312.321-.49s.215-.354.321-.53q.2-.231.4-.5c.134-.18.267-.347.4-.5a13.172,13.172,0,0,1,.964-.985A5.357,5.357,0,0,1,157.3,45.3c.214-.136.435-.269.664-.395a4.78,4.78,0,0,1,.7-.321c.134-.046.262-.091.381-.134l.382-.134a1.54,1.54,0,0,0,.4-.1l.2-.027.079-.011.121-.017.079-.011.08-.011.162-.022a1.07,1.07,0,0,1,.321-.005,1.724,1.724,0,0,1,.381-.011c.12.01.247.019.381.027a3.052,3.052,0,0,1,.8.253,3.6,3.6,0,0,1,.761.42,2.116,2.116,0,0,1,.342.277c.094.095.193.188.3.282.08.124.154.235.222.334a2.2,2.2,0,0,1,.18.339,1.988,1.988,0,0,1,.28.589c.054.2.108.385.161.565a4.564,4.564,0,0,1,.121.956,2.084,2.084,0,0,1,0,.81,7.137,7.137,0,0,1-.121,1.354,4.744,4.744,0,0,0-.12.585,4.529,4.529,0,0,1-.12.583c-.054.2-.108.38-.16.549s-.108.353-.162.55l-.321,1.017c-.107.34-.228.667-.36.982-.135.343-.262.672-.383.985s-.247.629-.381.944c-.268.661-.529,1.29-.783,1.893s-.5,1.2-.742,1.8l-.722,1.8q-.322.814-.643,1.75a3.416,3.416,0,0,0-.221,1.044c.014.187.094.263.241.229a2.214,2.214,0,0,0,.623-.308c.266-.173.561-.348.881-.529a2.886,2.886,0,0,0,.361-.313c.107-.109.214-.212.322-.307l.723-.708q.681-.7,1.323-1.441t1.286-1.516c.213-.245.42-.5.62-.776s.409-.543.623-.814a6.628,6.628,0,0,0,.521-.783c.242-.4.415-.672.522-.822l.322-.409.28-.4.041-.006a.446.446,0,0,1,.723-.181" transform="translate(-6.411 -8.381)" fill="#11361f"/>
      <path id="パス_59" data-name="パス 59" d="M190.066,55.894l-.723.992-.723.992q-.762.956-1.565,1.9t-1.724,1.841c-.3.311-.6.609-.9.895s-.635.575-.983.867A21.691,21.691,0,0,1,181.4,65a16.94,16.94,0,0,1-2.288,1.493l-.641.334a7,7,0,0,1-.642.291q-.322.125-.663.233c-.228.072-.461.153-.7.239a2.982,2.982,0,0,1-.682.176c-.24.035-.482.067-.723.1a6.55,6.55,0,0,1-1.525.051,4.54,4.54,0,0,1-1.525-.275,5.586,5.586,0,0,1-.762-.259c-.24-.1-.482-.217-.723-.345a5.71,5.71,0,0,1-1.244-.962,6.384,6.384,0,0,1-.521-.6c-.162-.207-.308-.409-.443-.607a4.5,4.5,0,0,1-.359-.638,6.991,6.991,0,0,1-.283-.69,8.86,8.86,0,0,1-.36-1.409,6.572,6.572,0,0,1-.18-1.353q-.02-.684.019-1.381t.14-1.357c.067-.44.155-.871.261-1.291a22.1,22.1,0,0,1,1.887-4.881c.186-.405.386-.789.6-1.157s.443-.73.683-1.088.481-.707.723-1.052a12.374,12.374,0,0,1,.8-1.024,5.87,5.87,0,0,1,.443-.527c.16-.171.307-.333.441-.487.161-.158.321-.308.481-.452s.322-.294.481-.452c.348-.319.7-.617,1.064-.9a12.317,12.317,0,0,1,1.144-.786q.521-.316,1.244-.7c.213-.083.434-.169.662-.254s.462-.173.7-.26a4.859,4.859,0,0,1,.743-.2,3.126,3.126,0,0,1,.783-.049c.267-.009.542-.007.822.007a3.615,3.615,0,0,1,.863.163,4.213,4.213,0,0,1,1.564.837,3.908,3.908,0,0,1,1.124,1.383,6.465,6.465,0,0,1,.562,1.543,11.2,11.2,0,0,1,.121,1.6,9.461,9.461,0,0,1-.121,1.516q-.081.377-.181.735t-.18.694q-.241.722-.542,1.412a8.992,8.992,0,0,1-.741,1.36,7.464,7.464,0,0,1-.923,1.3,5.51,5.51,0,0,1-1.2,1.221c-.215.191-.455.388-.723.586a.888.888,0,0,0-.2.11l-.121.056a.132.132,0,0,1-.08.053,3.323,3.323,0,0,1-.321.167,7.28,7.28,0,0,1-1.283.541,9.233,9.233,0,0,1-2.768.588l-.722-.02a3.433,3.433,0,0,1-.342-.035,2.727,2.727,0,0,1-.341-.073,4.934,4.934,0,0,1-1.284-.429,1.806,1.806,0,0,1-.3-.14,1.523,1.523,0,0,1-.262-.187.893.893,0,0,1-.241-.169,1.549,1.549,0,0,1-.281-.2l-.4-.431c-.134-.145-.268-.3-.4-.47a.1.1,0,0,1-.04-.076.1.1,0,0,0-.04-.074V56.7a7.612,7.612,0,0,0,.06.983c.041.306.087.6.141.894a5.558,5.558,0,0,0,.22.84,7.8,7.8,0,0,0,.3.749,3.173,3.173,0,0,0,.722,1.115,1.762,1.762,0,0,0,.4.389,4.763,4.763,0,0,0,.441.264,1.441,1.441,0,0,0,.461.2,5.031,5.031,0,0,0,.582.1,3.376,3.376,0,0,0,.683.087q.36.011.8.031c.134-.019.274-.032.421-.039s.287-.021.421-.039a2.5,2.5,0,0,0,.882-.123,12.733,12.733,0,0,0,1.928-.511q.479-.189.962-.417c.321-.154.642-.319.963-.5s.635-.373.944-.577.609-.409.9-.613q.922-.653,1.826-1.388c.6-.489,1.185-1,1.745-1.54.134-.126.276-.253.422-.383a4.037,4.037,0,0,0,.421-.423c.133-.126.275-.266.421-.422s.287-.309.421-.464.335-.363.6-.63.467-.477.6-.631a5,5,0,0,1,.4-.42l.161-.225.2-.23a.579.579,0,0,1,.843-.159.53.53,0,0,1,.08.76l-.08.131-.08.132-.2.272c-.055.089-.107.17-.161.245s-.108.157-.16.244c-.108.177-.282.423-.522.742s-.429.566-.562.746m-17.337-5.245a8.8,8.8,0,0,0-.421.991q-.18.511-.34,1.02a9.448,9.448,0,0,0-.4,1.919l.04.036q.482.256.923.439a2.781,2.781,0,0,0,.923.236.31.31,0,0,0,.1.026.319.319,0,0,1,.1.026.278.278,0,0,1,.12,0,.252.252,0,0,0,.121,0,.632.632,0,0,0,.221.009.662.662,0,0,1,.221.01,4.543,4.543,0,0,0,1.684-.4c.268-.117.528-.248.784-.392s.515-.3.782-.474q.2-.148.382-.3c.12-.1.247-.2.382-.3a.4.4,0,0,1,.08-.071.446.446,0,0,0,.079-.071l.041-.047.04-.046a.239.239,0,0,0,.1-.1.868.868,0,0,1,.1-.135,1.98,1.98,0,0,0,.182-.248c.065-.1.126-.2.18-.288a2.2,2.2,0,0,0,.36-.738,3.6,3.6,0,0,0,.322-.754,8.129,8.129,0,0,0,.2-.818c.026-.138.054-.271.081-.4a34.449,34.449,0,0,1,.079-.76v-.365a1.085,1.085,0,0,0,.02-.347,1.983,1.983,0,0,1-.02-.3,1.733,1.733,0,0,0-.02-.282,1.236,1.236,0,0,1-.02-.2.7.7,0,0,1-.039-.218.377.377,0,0,0-.041-.176.606.606,0,0,0-.121-.306,2.01,2.01,0,0,1-.161-.162.607.607,0,0,0-.24-.148,1.971,1.971,0,0,0-.682-.23,1.44,1.44,0,0,0-.421-.043,3.622,3.622,0,0,1-.421,0,2.505,2.505,0,0,0-.883.123,5.084,5.084,0,0,0-1.764.894,4.846,4.846,0,0,0-.805.72c-.239.25-.467.511-.681.784a11.168,11.168,0,0,0-1.164,1.864" transform="translate(-5.954 -8.298)" fill="#11361f"/>
    </g>
    <g id="グループ_239" data-name="グループ 239" transform="translate(3048.955 4643.53)">
      <path id="パス_60" data-name="パス 60" d="M49.929,76.566l-.87.635c-.137-.261-.308-.37-.51-.333a.426.426,0,0,0-.248.144.4.4,0,0,0-.1.27c0,.178.2.317.609.414a2.878,2.878,0,0,1,1.128.464.981.981,0,0,1,.291.779,1.781,1.781,0,0,1-.487,1.216A2.024,2.024,0,0,1,48.6,80.8a1.343,1.343,0,0,1-1.624-.833l.9-.591a1.557,1.557,0,0,0,.285.369.557.557,0,0,0,.459.095.566.566,0,0,0,.533-.6c0-.191-.136-.343-.411-.456-.107-.035-.213-.067-.319-.1s-.214-.064-.324-.1a1.549,1.549,0,0,1-.645-.336.968.968,0,0,1-.238-.7,1.6,1.6,0,0,1,.406-1.078,1.754,1.754,0,0,1,1.011-.584,1.115,1.115,0,0,1,1.3.675" transform="translate(-43.456 -59.294)" fill="#11361f"/>
      <path id="パス_61" data-name="パス 61" d="M51.175,73.654a.806.806,0,0,1,.2-.525.818.818,0,0,1,.481-.3.563.563,0,0,1,.487.114.548.548,0,0,1,.2.452.815.815,0,0,1-.2.533.8.8,0,0,1-.481.3.561.561,0,0,1-.689-.575m1.212,1.7v4.64l-1.052.2V75.552Z" transform="translate(-43.381 -59.348)" fill="#11361f"/>
      <path id="パス_62" data-name="パス 62" d="M53.912,75.03l1.059-.2v.428a2.133,2.133,0,0,1,1.245-.791,1.335,1.335,0,0,1,1.24.276,1.828,1.828,0,0,1,.384,1.344v2.843l-1.056.2V76.537a1.533,1.533,0,0,0-.187-.911q-.183-.232-.666-.141a1.016,1.016,0,0,0-.744.492,2.726,2.726,0,0,0-.215,1.255v2.238l-1.059.2Z" transform="translate(-43.332 -59.32)" fill="#11361f"/>
      <path id="パス_63" data-name="パス 63" d="M62.864,73.547v1.425a1.951,1.951,0,0,0-.646-.493,1.136,1.136,0,0,0-.66-.049,1.61,1.61,0,0,0-.988.611,1.781,1.781,0,0,0-.393,1.135,1.287,1.287,0,0,0,.38,1,1.08,1.08,0,0,0,.978.236,1.57,1.57,0,0,0,.67-.293,3.537,3.537,0,0,0,.66-.752v1.414a3.23,3.23,0,0,1-1.282.579A2.1,2.1,0,0,1,59.811,78a1.934,1.934,0,0,1-.71-1.6,2.851,2.851,0,0,1,.721-1.889,2.991,2.991,0,0,1,1.769-1.046,2.394,2.394,0,0,1,1.273.089" transform="translate(-43.239 -59.338)" fill="#11361f"/>
      <path id="パス_64" data-name="パス 64" d="M68.191,74.918l-3.267.615a1.171,1.171,0,0,0,.365.841.952.952,0,0,0,.829.177,1.276,1.276,0,0,0,.65-.313,3.525,3.525,0,0,0,.575-.812l.89.338a4.7,4.7,0,0,1-.435.694,3.139,3.139,0,0,1-.492.511,2.465,2.465,0,0,1-.567.347,2.941,2.941,0,0,1-.661.2,1.822,1.822,0,0,1-1.638-.359,2.124,2.124,0,0,1-.618-1.664,3.05,3.05,0,0,1,.6-1.894,2.548,2.548,0,0,1,1.6-.972,1.741,1.741,0,0,1,1.591.353,2.2,2.2,0,0,1,.58,1.688Zm-1.081-.673a.82.82,0,0,0-1.063-.658,1.2,1.2,0,0,0-.36.127,1.286,1.286,0,0,0-.307.229,1.393,1.393,0,0,0-.236.313,1.552,1.552,0,0,0-.15.386Z" transform="translate(-43.155 -59.353)" fill="#11361f"/>
      <path id="パス_65" data-name="パス 65" d="M71.4,70.112l-1.25.234.6-1.15,1.742-.328v7.354l-1.091.2Z" transform="translate(-43.042 -59.419)" fill="#11361f"/>
      <path id="パス_66" data-name="パス 66" d="M77.02,75.627l-.8-.455,1.726-2.721c-.093.031-.173.056-.238.074a1.563,1.563,0,0,1-.16.04,1.711,1.711,0,0,1-1.516-.4A1.9,1.9,0,0,1,75.4,70.66a3.085,3.085,0,0,1,2.41-2.911,2.036,2.036,0,0,1,1.718.392,1.852,1.852,0,0,1,.73,1.539,3.885,3.885,0,0,1-.71,1.988Zm-.562-5.248a1.136,1.136,0,0,0,.4.926,1.121,1.121,0,0,0,.969.227,1.74,1.74,0,0,0,1.366-1.647A1.112,1.112,0,0,0,77.82,68.75a1.75,1.75,0,0,0-1.362,1.629" transform="translate(-42.949 -59.44)" fill="#11361f"/>
      <path id="パス_67" data-name="パス 67" d="M83.068,74.491l-.8-.455L84,71.316c-.094.03-.174.056-.239.073a1.561,1.561,0,0,1-.16.04,1.71,1.71,0,0,1-1.516-.395,1.906,1.906,0,0,1-.637-1.51,3.085,3.085,0,0,1,2.411-2.911A2.041,2.041,0,0,1,85.572,67a1.852,1.852,0,0,1,.73,1.539,3.876,3.876,0,0,1-.71,1.988Zm-.562-5.248A1.113,1.113,0,0,0,83.874,70.4a1.745,1.745,0,0,0,1.367-1.648,1.112,1.112,0,0,0-1.372-1.134,1.747,1.747,0,0,0-1.362,1.627" transform="translate(-42.841 -59.46)" fill="#11361f"/>
      <path id="パス_68" data-name="パス 68" d="M88.628,69.368a1.465,1.465,0,0,1-.8-1.408,2.425,2.425,0,0,1,.6-1.608,2.564,2.564,0,0,1,1.512-.884,1.747,1.747,0,0,1,1.5.319,1.678,1.678,0,0,1,.6,1.387,2.284,2.284,0,0,1-.791,1.7,1.277,1.277,0,0,1,.683.567,1.825,1.825,0,0,1,.253.98,2.578,2.578,0,0,1-.627,1.718,2.689,2.689,0,0,1-1.605.926,1.979,1.979,0,0,1-1.653-.319,1.732,1.732,0,0,1-.655-1.458,2.2,2.2,0,0,1,.979-1.919m.094,1.678a1.021,1.021,0,0,0,.346.811.973.973,0,0,0,.851.2,1.529,1.529,0,0,0,1.2-1.449.977.977,0,0,0-1.2-1,1.441,1.441,0,0,0-.847.517,1.406,1.406,0,0,0-.35.918m.135-3.282a.9.9,0,0,0,.313.731.885.885,0,0,0,.767.18,1.383,1.383,0,0,0,1.081-1.3.883.883,0,0,0-1.081-.9,1.285,1.285,0,0,0-.763.468,1.27,1.27,0,0,0-.318.822" transform="translate(-42.731 -59.48)" fill="#11361f"/>
      <rect id="長方形_134" data-name="長方形 134" width="55.063" height="0.606" transform="translate(0 10.175) rotate(-10.649)" fill="#11361f"/>
      <rect id="長方形_135" data-name="長方形 135" width="55.063" height="0.606" transform="translate(0 26.926) rotate(-10.649)" fill="#11361f"/>
    </g>
  </g>
</svg>
